<?xml version="1.0" encoding="UTF-8"?>
<svg xmlns="http://www.w3.org/2000/svg" width="41.745079mm" height="41.785522mm" viewBox="0 0 41.745078 41.785523" version="1.1"><g transform="translate(-21.105895,-103.68246)"><g transform="translate(1.8962595,-0.40724)"><path style="stroke-width:0.688136" d="m 24.486166,136.05099 8.39527,-21.12579 h 3.78475 l 8.39527,21.12579 h -4.74815 l -1.72034,-4.95457 h -7.84476 l -1.72034,4.95457 z m 0.96339,-0.61931 h 1.30746 l 1.85797,-4.95458 h 10.52849 l 1.78916,4.95458 h 1.30746 l -2.20204,-5.9868 h -11.01019 l 4.88577,-12.79933 h 0.13763 l 3.92238,10.52849 h 1.16983 l -4.33526,-11.5607 h -1.37627 z m 1.92678,0 h 1.23865 l 1.5139,-4.33526 h -1.10102 z m 15.41427,0 h 1.44508 l -7.91357,-19.88715 h -1.0322 l 4.67933,12.18002 h -8.5329 l 3.0278,-8.25764 -0.48169,-1.44509 -4.06001,10.73493 h 10.45968 z m -10.5285,-8.25764 h 4.95459 l -2.47729,-6.74374 v 0 z" /><path style="stroke-width:0.688136" d="m 50.662209,136.36066 c -1.238646,0 -2.546106,-0.34407 -3.509497,-0.96339 v -4.54171 h 0.137627 c 0.688137,0.96339 1.651528,1.37628 2.546106,1.37628 1.720342,0 2.477293,-0.9634 2.477293,-3.02781 v -14.5885 H 56.649 v 15.41427 c -0.06881,3.64712 -1.651529,6.33086 -5.986791,6.33086 z m -0.481695,-2.27085 c 2.82136,0 3.991193,-1.44509 3.991193,-4.40408 v -5.78035 h -1.238646 v 5.57391 c 0,2.27085 -1.032205,3.5095 -3.096616,3.5095 -0.688137,0 -1.582714,-0.27526 -2.133224,-0.82577 v 1.16984 c 0.688137,0.48169 1.582715,0.75695 2.477293,0.75695 z m 0.344068,1.65152 v -1.10101 h -0.275255 c -0.825764,0 -1.789155,-0.27526 -2.477292,-0.68814 v 1.10102 c 0.688137,0.48169 1.789155,0.68813 2.752547,0.68813 z m 0.619323,0 c 3.647125,-0.20644 4.885771,-2.5461 4.885771,-5.71153 V 115.37248 H 54.79103 v 14.45088 c 0,2.5461 -0.963391,4.47289 -3.647125,4.81696 z m 1.789156,-12.52409 h 1.238646 v -7.91357 h -1.238646 z" /></g><path style="stroke-width:0.264583" d="m 22.076714,104.69373 v 40.77425 h 40.774257 v -40.77425 z m 0.669746,0.67629 39.603176,-0.0404 -0.04045,39.52227 -39.603176,0.0404 z" /><path d="m 21.105895,103.68246 v 40.77425 h 40.774256 v -40.77425 z m 0.669746,0.67629 39.603175,-0.0404 -0.04045,39.52227 -39.603176,0.0404 z" style="stroke-width:0.264583"/></g></svg>
