<?xml version="1.0" encoding="UTF-8"?>
<svg xmlns="http://www.w3.org/2000/svg" height="82.186295" width="1005.4816" viewBox="0 0 1005.4816 82.186295" version="1.1"><g transform="matrix(2.600832,0,0,2.600832,-656.45,-482.9745)" id="main"><path d="m 252.4,216.5 12.2,-30.7 h 5.5 l 12.2,30.7 h -6.9 l -2.5,-7.2 h -11.4 l -2.5,7.2 z m 1.4,-0.9 h 1.9 l 2.7,-7.2 h 15.3 l 2.6,7.2 h 1.9 l -3.2,-8.7 h -16 l 7.1,-18.6 h 0.2 l 5.7,15.3 h 1.7 l -6.3,-16.8 h -2 z m 2.8,0 h 1.8 l 2.2,-6.3 H 259 Z m 22.4,0 h 2.1 l -11.5,-28.9 h -1.5 l 6.8,17.7 h -12.4 l 4.4,-12 -0.7,-2.1 -5.9,15.6 h 15.2 z m -15.3,-12 h 7.2 l -3.6,-9.8 v 0 z" /><path d="m 287.1,216.5 v -30.7 h 6.3 v 24.9 h 10.8 v 5.8 z m 0.9,-0.9 h 1.8 V 186.7 H 288 Z m 2.7,0 h 12.6 v -1.5 h -10.8 v -27.4 h -1.8 z m 2.7,-2.4 h 9.9 v -1.5 h -9.9 z" /><path d="m 309.9,216.5 v -30.7 h 16.9 v 5.8 h -10.6 v 6.6 h 10.1 v 5.8 h -10.1 v 6.8 h 11.7 v 5.8 h -18 z m 17.1,-3.3 v -1.5 h -14.4 v -11 h 12.8 v -1.5 h -12.8 v -10.8 h 13.3 v -1.5 h -15.1 v 26.5 H 327 Z m 0,2.4 v -1.5 h -16.2 v 1.5 z m -11.7,-17.4 v -7.5 h 10.6 v -1.5 h -12.4 v 9 z m 0,12.6 v -7.7 h 10.1 v -1.5 h -11.9 v 9.2 z" /><path d="m 332,216.5 9.1,-15.6 -9.7,-15.1 h 7.6 l 6.7,11.2 v 0 l 6.3,-11.2 h 7.3 l -9.1,15.1 9.9,15.6 h -7.6 l -6.8,-11.6 v 0 l -6.4,11.6 z m 11.2,-14 0.9,-1.6 -8.9,-14.2 H 333 Z m -9.5,13.1 h 2.1 l 7,-12.3 -1,-1.5 z m 11.2,-15.1 h 1.8 l 8.1,-13.8 h -2 l -6.9,11.9 v 0 l -7.4,-11.9 h -2.2 z m -8.1,15.1 h 2 l 6.9,-12.4 v 0 l 7.5,12.4 h 2.2 l -8.7,-14.2 h -1.8 z m 19.6,0 h 2.2 l -10.3,-16.3 -0.9,1.6 z m -6.6,-15.5 8.1,-13.3 h -2.1 l -7,11.8 z" /><path d="m 362.1,216.5 12.2,-30.7 h 5.5 l 12.2,30.7 h -6.9 l -2.5,-7.2 h -11.4 l -2.5,7.2 z m 1.4,-0.9 h 1.9 l 2.7,-7.2 h 15.3 l 2.6,7.2 h 1.9 l -3.2,-8.7 h -15.9 l 7.1,-18.6 h 0.2 l 5.7,15.3 h 1.7 l -6.3,-16.8 h -2 z m 2.8,0 h 1.8 l 2.2,-6.3 h -1.7 z m 22.4,0 h 2.1 l -11.5,-28.9 h -1.5 l 6.8,17.7 h -12.4 l 4.4,-12 -0.7,-2.1 -5.9,15.6 h 15.2 z m -15.3,-12 h 7.2 l -3.6,-9.8 v 0 z" /><path d="m 396.8,216.5 v -27.8 l -1.8,-2.6 v -0.3 h 7.1 l 14.8,18.9 v 0 -18.9 h 6.3 v 30.7 H 418 l -14.9,-18.9 v 0 18.9 z m 0.9,-0.9 h 1.8 v -28.9 h -2.9 l 1.1,1.5 z m 2.7,0 h 1.8 v -25 0 l 14.6,18.6 v -3 l -15.3,-19.5 h -1.1 z m 18.1,0 h 1 v -28.9 h -1.8 v 25 0 L 403,193.1 v 3 z m 1.9,0 h 1.8 v -28.9 h -1.8 z" /><path d="m 431.3,216.5 v -30.7 h 10.9 c 8.4,0 15.7,5 15.7,15.3 0,10.3 -7.2,15.3 -15.7,15.3 h -10.9 z m 0.9,-0.9 h 1.8 v -24.9 h 8 c 6,0 10.3,3.6 10.3,10.5 0,0.7 0,1.3 -0.1,1.9 h 1.9 c 0,-0.6 0.1,-1.2 0.1,-1.9 0,-8 -5.3,-12 -12,-12 H 434 v -2.4 h -1.8 z m 22.7,-17.4 h 1.9 c -1.3,-7.7 -7.5,-11.5 -14.5,-11.5 H 435 v 1.5 h 7.3 c 6.1,0.1 11.4,3.4 12.6,10 z m -20,17.4 h 7.3 c 8,0 14.8,-4.7 14.8,-14.4 0,-0.7 0,-1.4 -0.1,-2.1 H 455 c 0.1,0.7 0.1,1.3 0.1,2.1 0,8.6 -5.8,12.9 -12.9,12.9 h -5.5 v -22.5 h -1.8 z m 2.7,-4.8 h 4.4 c 5.4,0 9.4,-3.2 9.4,-9.6 0,-6.3 -4.1,-9.6 -9.4,-9.6 h -4.4 z m 0,2.4 h 4.6 c 5.9,0 10.7,-3.1 11.8,-9.2 h -1.9 c -1,5.1 -4.9,7.7 -10.1,7.7 h -4.4 z" /><path d="m 463.9,216.5 v -30.7 h 16.9 v 5.8 h -10.6 v 6.6 h 10.1 v 5.8 h -10.1 v 6.8 h 11.7 v 5.8 h -18 z m 17.1,-3.3 v -1.5 h -14.4 v -11 h 12.8 v -1.5 h -12.8 v -10.8 h 13.3 v -1.5 h -15.1 v 26.5 H 481 Z m 0,2.4 v -1.5 h -16.2 v 1.5 z m -11.7,-17.4 v -7.5 h 10.6 v -1.5 h -12.4 v 9 z m 0,12.6 v -7.7 h 10.1 v -1.5 h -11.9 v 9.2 z" /><path d="m 488.7,216.5 v -30.7 h 10.8 c 6.5,0 11,3.1 11,9.4 0,4.4 -1,7 -5.7,9.5 v 0.1 l 8.4,11.7 h -7.7 l -10,-14.4 v -0.2 c 6.6,-1 8.5,-3 8.5,-5.9 0,-2.7 -2,-4.4 -5.6,-4.4 H 495 v 24.9 z m 0.9,-0.9 h 1.8 v -24.9 h 7.1 c 4.1,0 6.5,1.9 6.5,5.1 0,3.1 -1.8,5.5 -8.1,6.8 l 0.9,1.3 c 8,-2 9,-4.7 9,-8.2 0,-4.1 -3.2,-6.4 -8.1,-6.4 h -7.4 v -2.4 h -1.8 v 28.7 z m 16.4,0 h 2.2 l -7.4,-10.2 c 8.1,-2.7 8.7,-6.3 8.7,-10.1 0,-5.6 -4.3,-8.5 -10.3,-8.5 h -7 v 1.5 h 6.7 c 5.3,0 8.8,2.6 8.8,7.2 0,4.5 -1.5,7.1 -9.4,9.1 z m -13.7,0 h 1.8 v -24 h -1.8 z m 17,0 h 2.1 l -7.6,-10.5 c -0.4,0.2 -1.3,0.6 -1.6,0.7 z" /><path d="m 533.5,217.3 c -1.8,0 -3.7,-0.5 -5.1,-1.4 v -6.6 h 0.2 c 1,1.4 2.4,2 3.7,2 2.5,0 3.6,-1.4 3.6,-4.4 v -21.2 h 6.3 v 22.4 c -0.1,5.3 -2.4,9.2 -8.7,9.2 z m -0.7,-3.3 c 4.1,0 5.8,-2.1 5.8,-6.4 v -8.4 h -1.8 v 8.1 c 0,3.3 -1.5,5.1 -4.5,5.1 -1,0 -2.3,-0.4 -3.1,-1.2 v 1.7 c 1,0.7 2.3,1.1 3.6,1.1 z m 0.5,2.4 v -1.6 h -0.4 c -1.2,0 -2.6,-0.4 -3.6,-1 v 1.6 c 1,0.7 2.6,1 4,1 z m 0.9,0 c 5.3,-0.3 7.1,-3.7 7.1,-8.3 v -21.3 h -1.8 v 21 c 0,3.7 -1.4,6.5 -5.3,7 z m 2.6,-18.2 h 1.8 v -11.5 h -1.8 z" /><path d="m 545.6,216.5 12.2,-30.7 h 5.5 l 12.2,30.7 h -6.9 l -2.5,-7.2 h -11.4 l -2.5,7.2 z m 1.3,-0.9 h 1.9 l 2.7,-7.2 h 15.3 l 2.6,7.2 h 1.9 l -3.2,-8.7 h -15.9 l 7.1,-18.6 h 0.2 l 5.7,15.3 h 1.7 l -6.3,-16.8 h -2 z m 2.8,0 h 1.8 l 2.2,-6.3 H 552 Z m 22.4,0 h 2.1 l -11.5,-28.9 h -1.5 l 6.8,17.7 h -12.4 l 4.4,-12 -0.7,-2.1 -5.9,15.6 h 15.2 z m -15.2,-12 h 7.2 l -3.6,-9.8 v 0 z" /><path d="m 580.2,216.5 v -27.8 l -1.8,-2.6 v -0.3 h 7.1 l 14.8,18.9 v 0 -18.9 h 6.3 v 30.7 h -5.1 l -14.9,-18.9 v 0 18.9 z m 0.9,-0.9 h 1.8 V 186.7 H 580 l 1.1,1.5 z m 2.7,0 h 1.8 v -25 0 l 14.6,18.6 v -3 l -15.3,-19.5 h -1.1 z m 18.1,0 h 1 v -28.9 h -1.8 v 25 0 l -14.6,-18.6 v 3 z m 1.9,0 h 1.8 v -28.9 h -1.8 z" /><path d="m 614.8,216.5 v -30.7 h 6.3 v 30.7 z m 0.9,-0.9 h 1.8 v -28.9 h -1.8 z m 2.7,-12.5 h 1.8 v -16.3 h -1.8 z m 0,12.5 h 1.8 V 204 h -1.8 z m 13.1,0.9 -9.9,-15.4 v -0.2 l 9.5,-15 h 7.4 l -9.8,15 v 0.1 l 10.3,15.6 h -7.5 z m 0.6,-0.9 h 2.1 l -10.6,-16.1 -0.9,1.4 z m 3.2,0 h 2.1 l -11.4,-17.1 7.6,-11.8 h -2 l -7.6,11.9 z m -7.2,-15.6 8.6,-13.3 h -2 l -7.6,11.8 z" /></g></svg>
